<svg xmlns="http://www.w3.org/2000/svg" viewBox="0 0 1200 900" width="1200" height="900" role="img" aria-label="Growth OS architecture: Three-layer encoded operation">
  <title>Growth OS — architecture</title>

  <defs>
    <style>
      .a-label { font-family: "Geist Mono", "JetBrains Mono", "SF Mono", Menlo, Consolas, monospace; font-weight: 500; letter-spacing: 0.24em; text-transform: uppercase; }
      .a-title { font-family: "Geist", "Inter", system-ui, -apple-system, "Segoe UI", Roboto, sans-serif; font-weight: 500; letter-spacing: -0.02em; }
      .a-sub { font-family: "Geist", "Inter", system-ui, -apple-system, "Segoe UI", Roboto, sans-serif; font-weight: 400; letter-spacing: 0; }
      .a-code { font-family: "Geist Mono", "JetBrains Mono", "SF Mono", Menlo, Consolas, monospace; font-weight: 400; }
    </style>
  </defs>

  <rect width="1200" height="900" fill="#ffffff"/>

  <text class="a-label" x="600" y="56" font-size="12" fill="#71717a" text-anchor="middle">Growth OS  ·  architecture</text>
  <text class="a-title" x="600" y="96" font-size="34" fill="#09090b" text-anchor="middle">Three layers. One encoded operation.</text>

  <g transform="translate(100 160)">
    <rect x="0" y="0" width="1000" height="180" fill="#fafafa" stroke="#e4e4e7" stroke-width="1" rx="12"/>

    <text class="a-label" x="32" y="38" font-size="11" fill="#b45309">LAYER 1  ·  ROM</text>
    <text class="a-title" x="32" y="80" font-size="28" fill="#09090b">Workspace</text>
    <text class="a-sub" x="32" y="112" font-size="16" fill="#52525b">Persistent. Transferable. Version-controlled. Files on disk. Yours forever.</text>
    <text class="a-code" x="32" y="148" font-size="13" fill="#71717a">SYSTEM.md  ·  INVARIANTS.md  ·  ENCODING.md  ·  company.yaml  ·  agents/  ·  skills/  ·  spec/  ·  reference/</text>

    <g transform="translate(790 40)">
      <rect x="0" y="0" width="28" height="36" fill="none" stroke="#09090b" stroke-width="1.5" rx="2"/>
      <rect x="8" y="8" width="28" height="36" fill="#ffffff" stroke="#09090b" stroke-width="1.5" rx="2"/>
      <rect x="16" y="16" width="28" height="36" fill="#ffffff" stroke="#09090b" stroke-width="1.5" rx="2"/>
      <line x1="20" y1="26" x2="38" y2="26" stroke="#09090b" stroke-width="1"/>
      <line x1="20" y1="32" x2="38" y2="32" stroke="#09090b" stroke-width="1"/>
      <line x1="20" y1="38" x2="32" y2="38" stroke="#09090b" stroke-width="1"/>
    </g>

    <rect x="880" y="40" width="80" height="24" fill="none" stroke="#e4e4e7" stroke-width="1" rx="4"/>
    <text class="a-code" x="920" y="57" font-size="11" fill="#52525b" text-anchor="middle">markdown</text>

    <rect x="880" y="72" width="80" height="24" fill="none" stroke="#e4e4e7" stroke-width="1" rx="4"/>
    <text class="a-code" x="920" y="89" font-size="11" fill="#52525b" text-anchor="middle">YAML</text>
  </g>

  <g transform="translate(596 350)">
    <line x1="0" y1="0" x2="0" y2="56" stroke="#d4d4d8" stroke-width="1.5"/>
    <path d="M -6,50 L 0,60 L 6,50" fill="none" stroke="#d4d4d8" stroke-width="1.5" stroke-linecap="round" stroke-linejoin="round"/>
    <text class="a-code" x="16" y="34" font-size="11" fill="#71717a">boot</text>
  </g>

  <g transform="translate(100 424)">
    <rect x="0" y="0" width="1000" height="180" fill="#fafafa" stroke="#e4e4e7" stroke-width="1" rx="12"/>

    <text class="a-label" x="32" y="38" font-size="11" fill="#b45309">LAYER 2  ·  RAM</text>
    <text class="a-title" x="32" y="80" font-size="28" fill="#09090b">Agent</text>
    <text class="a-sub" x="32" y="112" font-size="16" fill="#52525b">Stateless. Generic. Replaceable. Any LLM that reads markdown and YAML becomes a specialist.</text>
    <text class="a-code" x="32" y="148" font-size="13" fill="#71717a">any LLM that reads markdown + YAML  ·  runtime-agnostic  ·  yours forever</text>

    <g transform="translate(800 40)">
      <rect x="0" y="0" width="120" height="72" fill="#ffffff" stroke="#09090b" stroke-width="1.5" rx="4"/>
      <line x1="20" y1="18" x2="100" y2="18" stroke="#09090b" stroke-width="1" opacity="0.3"/>
      <line x1="20" y1="30" x2="80" y2="30" stroke="#09090b" stroke-width="1" opacity="0.3"/>
      <line x1="20" y1="42" x2="90" y2="42" stroke="#09090b" stroke-width="1" opacity="0.3"/>
      <line x1="20" y1="54" x2="70" y2="54" stroke="#09090b" stroke-width="1" opacity="0.3"/>

      <line x1="0" y1="8" x2="-12" y2="8" stroke="#09090b" stroke-width="1.2"/>
      <line x1="0" y1="20" x2="-12" y2="20" stroke="#09090b" stroke-width="1.2"/>
      <line x1="0" y1="32" x2="-12" y2="32" stroke="#09090b" stroke-width="1.2"/>
      <line x1="0" y1="44" x2="-12" y2="44" stroke="#09090b" stroke-width="1.2"/>
      <line x1="0" y1="56" x2="-12" y2="56" stroke="#09090b" stroke-width="1.2"/>
      <line x1="0" y1="68" x2="-12" y2="68" stroke="#09090b" stroke-width="1.2"/>

      <line x1="120" y1="8" x2="132" y2="8" stroke="#09090b" stroke-width="1.2"/>
      <line x1="120" y1="20" x2="132" y2="20" stroke="#09090b" stroke-width="1.2"/>
      <line x1="120" y1="32" x2="132" y2="32" stroke="#09090b" stroke-width="1.2"/>
      <line x1="120" y1="44" x2="132" y2="44" stroke="#09090b" stroke-width="1.2"/>
      <line x1="120" y1="56" x2="132" y2="56" stroke="#09090b" stroke-width="1.2"/>
      <line x1="120" y1="68" x2="132" y2="68" stroke="#09090b" stroke-width="1.2"/>
    </g>
  </g>

  <g transform="translate(596 614)">
    <line x1="0" y1="0" x2="0" y2="56" stroke="#d4d4d8" stroke-width="1.5"/>
    <path d="M -6,50 L 0,60 L 6,50" fill="none" stroke="#d4d4d8" stroke-width="1.5" stroke-linecap="round" stroke-linejoin="round"/>
    <text class="a-code" x="16" y="34" font-size="11" fill="#71717a">execute</text>
  </g>

  <g transform="translate(100 688)">
    <rect x="0" y="0" width="1000" height="180" fill="#fafafa" stroke="#e4e4e7" stroke-width="1" rx="12"/>

    <text class="a-label" x="32" y="38" font-size="11" fill="#b45309">LAYER 3  ·  STACKED</text>
    <text class="a-title" x="32" y="80" font-size="28" fill="#09090b">Skills</text>
    <text class="a-sub" x="32" y="112" font-size="16" fill="#52525b">Deterministic procedures. Rigid. Versioned. Testable. Not prompts. Not chat.</text>

    <g transform="translate(32 130)">
      <g font-family="Geist Mono, SF Mono, monospace" font-size="9" fill="#52525b">
        <rect x="0" y="0" width="92" height="26" fill="#ffffff" stroke="#d4d4d8" stroke-width="1" rx="4"/>
        <text x="46" y="17" text-anchor="middle">/research</text>
        <rect x="98" y="0" width="92" height="26" fill="#ffffff" stroke="#d4d4d8" stroke-width="1" rx="4"/>
        <text x="144" y="17" text-anchor="middle">/build-icp</text>
        <rect x="196" y="0" width="112" height="26" fill="#ffffff" stroke="#d4d4d8" stroke-width="1" rx="4"/>
        <text x="252" y="17" text-anchor="middle">/build-positioning</text>
        <rect x="314" y="0" width="102" height="26" fill="#ffffff" stroke="#d4d4d8" stroke-width="1" rx="4"/>
        <text x="365" y="17" text-anchor="middle">/design-offer</text>
        <rect x="422" y="0" width="102" height="26" fill="#ffffff" stroke="#d4d4d8" stroke-width="1" rx="4"/>
        <text x="473" y="17" text-anchor="middle">/extract-voice</text>
        <rect x="530" y="0" width="86" height="26" fill="#ffffff" stroke="#d4d4d8" stroke-width="1" rx="4"/>
        <text x="573" y="17" text-anchor="middle">/build-vsl</text>
        <rect x="622" y="0" width="102" height="26" fill="#ffffff" stroke="#d4d4d8" stroke-width="1" rx="4"/>
        <text x="673" y="17" text-anchor="middle">/build-funnel</text>
        <rect x="730" y="0" width="96" height="26" fill="#ffffff" stroke="#d4d4d8" stroke-width="1" rx="4"/>
        <text x="778" y="17" text-anchor="middle">/ad-creative</text>
        <rect x="832" y="0" width="100" height="26" fill="#ffffff" stroke="#b45309" stroke-width="1" rx="4"/>
        <text x="882" y="17" text-anchor="middle" fill="#b45309">+ more skills</text>
      </g>
    </g>
  </g>
</svg>
